<svg xmlns="http://www.w3.org/2000/svg" width="98" height="22" viewBox="0 0 98 22">
    <defs>
        <clipPath id="a">
            <path d="M0 0h98v22H0z"/>
        </clipPath>
    </defs>
    <g clip-path="url(#a)">
        <path d="M7.664 16.098c4.659 0 7.417-3.515 7.417-7.6v-.695H7.419v1.88h5.6a5.108 5.108 0 0 1-5.355 4.49 5.632 5.632 0 0 1-5.741-5.737 5.649 5.649 0 0 1 5.741-5.763 5.416 5.416 0 0 1 4.945 2.963l1.716-1.042A7.521 7.521 0 0 0 7.664.773 7.569 7.569 0 0 0-.08 8.436a7.619 7.619 0 0 0 7.744 7.662Zm15.346.041a5.553 5.553 0 0 0 2.452-.593 4.708 4.708 0 0 0 1.941-1.673v2.021h1.921V3.94h-1.921v1.982a5.384 5.384 0 0 0-4.393-2.227 6.061 6.061 0 0 0-6.089 6.232 6.081 6.081 0 0 0 6.089 6.212Zm.184-1.8a4.353 4.353 0 0 1-4.312-4.434 4.366 4.366 0 0 1 4.312-4.432 4.361 4.361 0 0 1 4.352 4.434 4.349 4.349 0 0 1-4.352 4.434Zm8.766 1.555h1.962V.773H31.96Zm10.217.245a5.553 5.553 0 0 0 2.452-.593 4.708 4.708 0 0 0 1.941-1.673v2.021h1.921V3.94H46.57v1.982a5.384 5.384 0 0 0-4.393-2.227 6.061 6.061 0 0 0-6.089 6.232 6.081 6.081 0 0 0 6.089 6.212Zm.184-1.8a4.353 4.353 0 0 1-4.312-4.434 4.366 4.366 0 0 1 4.312-4.432 4.361 4.361 0 0 1 4.352 4.434 4.349 4.349 0 0 1-4.352 4.434Zm7.785 1.555h2.394l3.494-4.659 3.552 4.659h2.391l-4.761-6.089 4.536-5.864h-2.329l-3.351 4.432-3.351-4.434H50.35l4.516 5.864Zm15.06 5.517h2.043L74.728 3.94H72.64l-3.736 9.052-4.025-9.052h-2.125l5.149 11.32Zm15.672-5.517h2.084l1.246-3.412h6.457l1.268 3.412h2.064L88.48.973h-2.064Zm6.559-12.2 2.534 6.886h-5.067Zm8.503 12.2h1.98V.973h-1.98Z" fill="#fff"/>
    </g>
</svg>