<svg width="300" height="300" viewBox="0 0 300 300" fill="none" xmlns="http://www.w3.org/2000/svg">
<g clip-path="url(#clip0_1_9)">
<rect width="300" height="300" rx="59" fill="white"/>
<g clip-path="url(#clip1_1_9)">
<path d="M226.074 115.311C219.292 107.838 209.07 103.496 194.9 101.981V94.3059C194.9 80.4705 189.03 67.14 178.706 57.8491C168.281 48.3563 154.718 43.9128 140.65 45.2256C116.46 47.5484 96.1158 70.8766 96.1158 96.1236V101.981C81.946 103.496 71.7234 107.838 64.9421 115.311C55.1245 126.218 55.4281 140.76 56.5414 150.859L63.6264 207.11C65.7519 226.802 73.7477 247 117.269 247H173.746C217.268 247 225.264 226.802 227.39 207.211L234.474 150.758C235.588 140.76 235.79 126.218 226.074 115.311ZM142.067 59.263C152.188 58.3541 161.803 61.4847 169.293 68.2509C176.682 74.9161 180.831 84.409 180.831 94.3059V101.375H110.184V96.1236C110.184 78.1478 125.063 60.8788 142.067 59.263ZM109.274 157.626H109.172C103.606 157.626 99.051 153.081 99.051 147.527C99.051 141.972 103.606 137.428 109.172 137.428C114.84 137.428 119.395 141.972 119.395 147.527C119.395 153.081 114.84 157.626 109.274 157.626ZM180.123 157.626H180.022C174.455 157.626 169.9 153.081 169.9 147.527C169.9 141.972 174.455 137.428 180.022 137.428C185.69 137.428 190.244 141.972 190.244 147.527C190.244 153.081 185.69 157.626 180.123 157.626Z" fill="black"/>
</g>
</g>
<defs>
<clipPath id="clip0_1_9">
<rect width="300" height="300" rx="59" fill="white"/>
</clipPath>
<clipPath id="clip1_1_9">
<rect width="400" height="400" fill="white" transform="translate(-54 -54)"/>
</clipPath>
</defs>
</svg>
